<svg xmlns="http://www.w3.org/2000/svg" width="100" height="100" viewBox="0 0 100 100">
  <g id="グループ_221" data-name="グループ 221" transform="translate(-1280 -6089)">
    <circle id="楕円形_9" data-name="楕円形 9" cx="50" cy="50" r="50" transform="translate(1280 6089)" fill="#fff"/>
    <path id="多角形_2" data-name="多角形 2" d="M14,0,28,22.4H0Z" transform="translate(1316 6113)" fill="#3b4049"/>
    <path id="多角形_2_-_アウトライン" data-name="多角形 2 - アウトライン" d="M14,5.66,5.413,19.4H22.587L14,5.66M14,0,28,22.4H0Z" transform="translate(1316 6113)" fill="#3b4049"/>
    <path id="パス_33" data-name="パス 33" d="M4.56,0H7.8V-11.36h4.48V-14H.08v2.64H4.56ZM20.8.24c4.4,0,7.66-3.06,7.66-7.24s-3.26-7.24-7.66-7.24c-4.42,0-7.66,3.08-7.66,7.24S16.38.24,20.8.24Zm0-2.76A4.271,4.271,0,0,1,16.42-7a4.271,4.271,0,0,1,4.38-4.48A4.271,4.271,0,0,1,25.18-7,4.271,4.271,0,0,1,20.8-2.52ZM37.16-14H31.1V0h3.24V-3.86h2.82c3.74,0,6.08-1.94,6.08-5.06C43.24-12.06,40.9-14,37.16-14Zm-.18,7.5H34.34v-4.86h2.64c1.98,0,2.98.9,2.98,2.44C39.96-7.4,38.96-6.5,36.98-6.5Z" transform="translate(1308 6161)" fill="#3b4049"/>
  </g>
</svg>
